# xmcd CD database file
#
# Track frame offsets:
#	150
#	35391
#	65084
#	140883
#	171340
#	203490
#	241393
#	278974
#	310685
#
# Disc length: 4564 seconds
#
# Revision: 0
# Processed by: cddbd v1.5.2PL0 Copyright (c) Steve Scherf et al.
# Submitted via: CDex 1.77
#
DISCID=8511d209
DTITLE=Steve Coleman - The Embedded Sets CD 1
DYEAR=2017
DGENRE=Jazz
TTITLE0=Horda
TTITLE1=Djw
TTITLE2=Little Girl I'll Miss You - Embedded #1
TTITLE3=idHw
TTITLE4=twf
TTITLE5=Figit Time
TTITLE6=Nfr
TTITLE7=Little Girl I'll Miss You
TTITLE8=Change The Guard
EXTD=YEAR: 2017
EXTT0=
EXTT1=
EXTT2=
EXTT3=
EXTT4=
EXTT5=
EXTT6=
EXTT7=
EXTT8=
PLAYORDER=
